<svg width="857" height="302" viewBox="0 0 857 302" fill="none" xmlns="http://www.w3.org/2000/svg">
<mask id="path-1-outside-1_12_90" maskUnits="userSpaceOnUse" x="-0.742859" y="-0.989014" width="1286" height="303" fill="black">
<rect fill="white" x="-0.742859" y="-0.989014" width="1286" height="303"/>
<path d="M213.429 108.695V152.793H103.917C70.8435 152.793 52.4691 171.168 52.4691 204.241V250.912H220.779V295.011H1.02081V211.591C1.02081 145.443 37.7696 108.695 103.917 108.695H213.429ZM1.02081 1.02075H220.779V45.1193H1.02081V1.02075ZM422.842 295.011L358.532 191.012L294.222 295.011H233.586L328.398 142.136L240.936 1.02075H301.204L362.207 99.14L423.21 1.02075H483.478L392.341 148.016L483.478 295.011H422.842ZM505.599 295.011V1.02075H557.047V135.521C571.379 122.292 589.019 113.105 608.495 103.55C664.721 75.6208 684.933 49.5291 684.933 1.02075H736.381C730.869 64.9636 713.229 100.977 648.919 136.624L762.84 295.011H699.265L602.616 160.143C569.909 179.252 557.415 198.729 557.047 227.761V295.011H505.599ZM983.247 179.252V1.02075H1034.7V173.373C1034.7 257.16 989.862 300.891 910.117 300.891C829.637 300.891 784.803 257.16 784.803 173.373V1.02075H836.252V179.252C836.252 231.068 860.506 256.792 909.749 256.792C958.993 256.792 983.247 231.068 983.247 179.252ZM1122.99 1.02075V250.912H1283.95V295.011H1071.54V1.02075H1122.99Z"/>
</mask>
<path d="M213.429 108.695V152.793H103.917C70.8435 152.793 52.4691 171.168 52.4691 204.241V250.912H220.779V295.011H1.02081V211.591C1.02081 145.443 37.7696 108.695 103.917 108.695H213.429ZM1.02081 1.02075H220.779V45.1193H1.02081V1.02075ZM422.842 295.011L358.532 191.012L294.222 295.011H233.586L328.398 142.136L240.936 1.02075H301.204L362.207 99.14L423.21 1.02075H483.478L392.341 148.016L483.478 295.011H422.842ZM505.599 295.011V1.02075H557.047V135.521C571.379 122.292 589.019 113.105 608.495 103.55C664.721 75.6208 684.933 49.5291 684.933 1.02075H736.381C730.869 64.9636 713.229 100.977 648.919 136.624L762.84 295.011H699.265L602.616 160.143C569.909 179.252 557.415 198.729 557.047 227.761V295.011H505.599ZM983.247 179.252V1.02075H1034.7V173.373C1034.7 257.16 989.862 300.891 910.117 300.891C829.637 300.891 784.803 257.16 784.803 173.373V1.02075H836.252V179.252C836.252 231.068 860.506 256.792 909.749 256.792C958.993 256.792 983.247 231.068 983.247 179.252ZM1122.99 1.02075V250.912H1283.95V295.011H1071.54V1.02075H1122.99Z" fill="url(#paint0_linear_12_90)" fill-opacity="0.23"/>
<path d="M213.429 108.695H214.45V107.674H213.429V108.695ZM213.429 152.793V153.814H214.45V152.793H213.429ZM52.4691 250.912H51.4483V251.933H52.4691V250.912ZM220.779 250.912H221.799V249.892H220.779V250.912ZM220.779 295.011V296.032H221.799V295.011H220.779ZM1.02081 295.011H1.33514e-05V296.032H1.02081V295.011ZM1.02081 1.02075V-6.10352e-05H1.33514e-05V1.02075H1.02081ZM220.779 1.02075H221.799V-6.10352e-05H220.779V1.02075ZM220.779 45.1193V46.1401H221.799V45.1193H220.779ZM1.02081 45.1193H1.33514e-05V46.1401H1.02081V45.1193ZM213.429 108.695H212.408V152.793H213.429H214.45V108.695H213.429ZM213.429 152.793V151.772H103.917V152.793V153.814H213.429V152.793ZM103.917 152.793V151.772C87.1958 151.772 74.0413 156.42 65.0687 165.393C56.0962 174.365 51.4483 187.52 51.4483 204.242H52.4691H53.4899C53.4899 187.889 58.0293 175.32 66.5124 166.836C74.9955 158.353 87.5651 153.814 103.917 153.814V152.793ZM52.4691 204.242H51.4483V250.912H52.4691H53.4899V204.242H52.4691ZM52.4691 250.912V251.933H220.779V250.912V249.892H52.4691V250.912ZM220.779 250.912H219.758V295.011H220.779H221.799V250.912H220.779ZM220.779 295.011V293.99H1.02081V295.011V296.032H220.779V295.011ZM1.02081 295.011H2.04161V211.591H1.02081H1.33514e-05V295.011H1.02081ZM1.02081 211.591H2.04161C2.04161 178.702 11.1746 153.27 28.3855 136.059C45.5964 118.848 71.0282 109.715 103.917 109.715V108.695V107.674C70.6588 107.674 44.6423 116.915 26.9419 134.616C9.24146 152.316 1.33514e-05 178.333 1.33514e-05 211.591H1.02081ZM103.917 108.695V109.715H213.429V108.695V107.674H103.917V108.695ZM1.02081 1.02075V2.04153H220.779V1.02075V-6.10352e-05H1.02081V1.02075ZM220.779 1.02075H219.758V45.1193H220.779H221.799V1.02075H220.779ZM220.779 45.1193V44.0985H1.02081V45.1193V46.1401H220.779V45.1193ZM1.02081 45.1193H2.04161V1.02075H1.02081H1.33514e-05V45.1193H1.02081ZM422.842 295.011L421.974 295.548L422.273 296.032H422.842V295.011ZM358.532 191.012L359.4 190.475L358.532 189.071L357.664 190.475L358.532 191.012ZM294.222 295.011V296.032H294.79L295.09 295.548L294.222 295.011ZM233.586 295.011L232.719 294.473L231.752 296.032H233.586V295.011ZM328.398 142.136L329.265 142.674L329.599 142.136L329.266 141.598L328.398 142.136ZM240.936 1.02075V-6.10352e-05H239.102L240.068 1.5585L240.936 1.02075ZM301.204 1.02075L302.071 0.481781L301.771 -6.10352e-05H301.204V1.02075ZM362.207 99.14L361.34 99.679L362.207 101.073L363.074 99.679L362.207 99.14ZM423.21 1.02075V-6.10352e-05H422.642L422.343 0.481781L423.21 1.02075ZM483.478 1.02075L484.345 1.55865L485.312 -6.10352e-05H483.478V1.02075ZM392.341 148.016L391.473 147.478L391.14 148.016L391.473 148.554L392.341 148.016ZM483.478 295.011V296.032H485.312L484.345 294.473L483.478 295.011ZM422.842 295.011L423.71 294.474L359.4 190.475L358.532 191.012L357.664 191.549L421.974 295.548L422.842 295.011ZM358.532 191.012L357.664 190.475L293.353 294.474L294.222 295.011L295.09 295.548L359.4 191.549L358.532 191.012ZM294.222 295.011V293.99H233.586V295.011V296.032H294.222V295.011ZM233.586 295.011L234.454 295.549L329.265 142.674L328.398 142.136L327.53 141.598L232.719 294.473L233.586 295.011ZM328.398 142.136L329.266 141.598L241.803 0.482971L240.936 1.02075L240.068 1.5585L327.53 142.674L328.398 142.136ZM240.936 1.02075V2.04153H301.204V1.02075V-6.10352e-05H240.936V1.02075ZM301.204 1.02075L300.337 1.55972L361.34 99.679L362.207 99.14L363.074 98.601L302.071 0.481781L301.204 1.02075ZM362.207 99.14L363.074 99.679L424.077 1.55972L423.21 1.02075L422.343 0.481781L361.34 98.601L362.207 99.14ZM423.21 1.02075V2.04153H483.478V1.02075V-6.10352e-05H423.21V1.02075ZM483.478 1.02075L482.61 0.482849L391.473 147.478L392.341 148.016L393.208 148.554L484.345 1.55865L483.478 1.02075ZM392.341 148.016L391.473 148.554L482.61 295.549L483.478 295.011L484.345 294.473L393.208 147.478L392.341 148.016ZM483.478 295.011V293.99H422.842V295.011V296.032H483.478V295.011ZM505.599 295.011H504.578V296.032H505.599V295.011ZM505.599 1.02075V-6.10352e-05H504.578V1.02075H505.599ZM557.047 1.02075H558.068V-6.10352e-05H557.047V1.02075ZM557.047 135.521H556.026V137.853L557.739 136.271L557.047 135.521ZM608.495 103.55L608.945 104.466L608.95 104.464L608.495 103.55ZM684.933 1.02075V-6.10352e-05H683.912V1.02075H684.933ZM736.381 1.02075L737.398 1.10843L737.494 -6.10352e-05H736.381V1.02075ZM648.919 136.624L648.424 135.731L647.42 136.288L648.09 137.22L648.919 136.624ZM762.84 295.011V296.032H764.832L763.669 294.415L762.84 295.011ZM699.265 295.011L698.435 295.606L698.741 296.032H699.265V295.011ZM602.616 160.143L603.445 159.548L602.904 158.792L602.101 159.262L602.616 160.143ZM557.047 227.761L556.026 227.748V227.761H557.047ZM557.047 295.011V296.032H558.068V295.011H557.047ZM505.599 295.011H506.62V1.02075H505.599H504.578V295.011H505.599ZM505.599 1.02075V2.04153H557.047V1.02075V-6.10352e-05H505.599V1.02075ZM557.047 1.02075H556.026V135.521H557.047H558.068V1.02075H557.047ZM557.047 135.521L557.739 136.271C571.949 123.155 589.461 114.024 608.945 104.466L608.495 103.55L608.046 102.633C588.576 112.185 570.809 121.428 556.355 134.771L557.047 135.521ZM608.495 103.55L608.95 104.464C637.113 90.4745 656.391 76.8829 668.615 60.6158C680.864 44.3144 685.954 25.4291 685.954 1.02075H684.933H683.912C683.912 25.1208 678.896 43.5355 666.983 59.3893C655.044 75.2773 636.104 88.6961 608.041 102.636L608.495 103.55ZM684.933 1.02075V2.04153H736.381V1.02075V-6.10352e-05H684.933V1.02075ZM736.381 1.02075L735.364 0.933075C732.614 32.8375 726.847 57.644 713.829 78.9003C700.815 100.15 680.489 117.958 648.424 135.731L648.919 136.624L649.414 137.517C681.66 119.643 702.308 101.621 715.57 79.9666C728.827 58.3187 734.636 33.1469 737.398 1.10843L736.381 1.02075ZM648.919 136.624L648.09 137.22L762.012 295.607L762.84 295.011L763.669 294.415L649.748 136.028L648.919 136.624ZM762.84 295.011V293.99H699.265V295.011V296.032H762.84V295.011ZM699.265 295.011L700.095 294.416L603.445 159.548L602.616 160.143L601.786 160.738L698.435 295.606L699.265 295.011ZM602.616 160.143L602.101 159.262C585.674 168.859 574.231 178.601 566.855 189.665C559.467 200.747 556.212 213.076 556.026 227.748L557.047 227.761L558.068 227.774C558.25 213.414 561.426 201.489 568.554 190.797C575.694 180.087 586.851 170.536 603.131 161.024L602.616 160.143ZM557.047 227.761H556.026V295.011H557.047H558.068V227.761H557.047ZM557.047 295.011V293.99H505.599V295.011V296.032H557.047V295.011ZM983.247 1.02075V-6.10352e-05H982.226V1.02075H983.247ZM1034.7 1.02075H1035.72V-6.10352e-05H1034.7V1.02075ZM784.803 1.02075V-6.10352e-05H783.783V1.02075H784.803ZM836.252 1.02075H837.273V-6.10352e-05H836.252V1.02075ZM983.247 179.252H984.268V1.02075H983.247H982.226V179.252H983.247ZM983.247 1.02075V2.04153H1034.7V1.02075V-6.10352e-05H983.247V1.02075ZM1034.7 1.02075H1033.67V173.373H1034.7H1035.72V1.02075H1034.7ZM1034.7 173.373H1033.67C1033.67 215.091 1022.51 246.677 1001.58 267.834C980.656 288.99 949.808 299.87 910.117 299.87V300.891V301.912C950.17 301.912 981.612 290.926 1003.04 269.27C1024.46 247.615 1035.72 215.441 1035.72 173.373H1034.7ZM910.117 300.891V299.87C870.056 299.87 839.024 288.988 818.004 267.832C796.984 246.675 785.824 215.091 785.824 173.373H784.803H783.783C783.783 215.441 795.04 247.616 816.556 269.271C838.073 290.928 869.698 301.912 910.117 301.912V300.891ZM784.803 173.373H785.824V1.02075H784.803H783.783V173.373H784.803ZM784.803 1.02075V2.04153H836.252V1.02075V-6.10352e-05H784.803V1.02075ZM836.252 1.02075H835.231V179.252H836.252H837.273V1.02075H836.252ZM836.252 179.252H835.231C835.231 205.301 841.326 224.985 853.793 238.155C866.27 251.335 884.958 257.813 909.749 257.813V256.792V255.771C885.297 255.771 867.237 249.387 855.276 236.751C843.304 224.105 837.273 205.019 837.273 179.252H836.252ZM909.749 256.792V257.813C934.54 257.813 953.229 251.335 965.706 238.155C978.172 224.985 984.268 205.301 984.268 179.252H983.247H982.226C982.226 205.019 976.194 224.105 964.223 236.751C952.262 249.387 934.202 255.771 909.749 255.771V256.792ZM1122.99 1.02075H1124.01V-6.10352e-05H1122.99V1.02075ZM1122.99 250.912H1121.97V251.933H1122.99V250.912ZM1283.95 250.912H1284.97V249.892H1283.95V250.912ZM1283.95 295.011V296.032H1284.97V295.011H1283.95ZM1071.54 295.011H1070.52V296.032H1071.54V295.011ZM1071.54 1.02075V-6.10352e-05H1070.52V1.02075H1071.54ZM1122.99 1.02075H1121.97V250.912H1122.99H1124.01V1.02075H1122.99ZM1122.99 250.912V251.933H1283.95V250.912V249.892H1122.99V250.912ZM1283.95 250.912H1282.93V295.011H1283.95H1284.97V250.912H1283.95ZM1283.95 295.011V293.99H1071.54V295.011V296.032H1283.95V295.011ZM1071.54 295.011H1072.57V1.02075H1071.54H1070.52V295.011H1071.54ZM1071.54 1.02075V2.04153H1122.99V1.02075V-6.10352e-05H1071.54V1.02075Z" fill="#757575" fill-opacity="0.37" mask="url(#path-1-outside-1_12_90)"/>
<defs>
<linearGradient id="paint0_linear_12_90" x1="637.757" y1="1.01099" x2="637.757" y2="295.011" gradientUnits="userSpaceOnUse">
<stop stop-color="#909090"/>
<stop offset="1" stop-color="#C9C9C9"/>
</linearGradient>
</defs>
</svg>
