<svg width="278" height="24" viewBox="0 0 278 24" fill="none" xmlns="http://www.w3.org/2000/svg">
<path d="M15.072 9.832V12.712H7.92C5.76 12.712 4.56 13.912 4.56 16.072V19.12H15.552V22H1.2V16.552C1.2 12.232 3.6 9.832 7.92 9.832H15.072ZM1.2 2.8H15.552V5.68H1.2V2.8ZM28.2684 22L24.0684 15.208L19.8684 22H15.9084L22.1004 12.016L16.3884 2.8H20.3244L24.3084 9.208L28.2924 2.8H32.2284L26.2764 12.4L32.2284 22H28.2684ZM33.1931 22V2.8H36.5531V11.584C37.4891 10.72 38.6411 10.12 39.9131 9.496C43.5851 7.672 44.9051 5.968 44.9051 2.8H48.2651C47.9051 6.976 46.7531 9.328 42.5531 11.656L49.9931 22H45.8411L39.5291 13.192C37.3931 14.44 36.5771 15.712 36.5531 17.608V22H33.1931ZM63.9075 14.44V2.8H67.2675V14.056C67.2675 19.528 64.3395 22.384 59.1315 22.384C53.8755 22.384 50.9475 19.528 50.9475 14.056V2.8H54.3075V14.44C54.3075 17.824 55.8915 19.504 59.1075 19.504C62.3235 19.504 63.9075 17.824 63.9075 14.44ZM72.5541 2.8V19.12H83.0661V22H69.1941V2.8H72.5541Z" fill="black"/>
</svg>
